<mxfile host="app.diagrams.net" modified="2024-01-05T11:40:34.564Z" agent="Mozilla/5.0 (Windows NT 10.0; Win64; x64) AppleWebKit/537.36 (KHTML, like Gecko) Chrome/120.0.0.0 Safari/537.36 Edg/120.0.0.0" version="22.1.16" etag="761qgt-PIRCx2xoOAFSy" type="github">
  <diagram name="第 1 页" id="U_4ODGsdyI7NeSbkU0lq">
    <mxGraphModel>
      <root>
        <mxCell id="0" />
        <mxCell id="1" parent="0" />
      </root>
    </mxGraphModel>
  </diagram>
</mxfile>
